<svg xmlns="http://www.w3.org/2000/svg" width="16" height="16" viewBox="0 0 16 16">
    <g fill="none" fill-rule="evenodd">
        <path fill="#858585" d="M12.667 13.333c-.2 0-.334-.066-.467-.2L8.867 9.8c-.267-.267-.267-.667 0-.933.266-.267.666-.267.933 0l3.333 3.333c.267.267.267.667 0 .933-.133.134-.266.2-.466.2z" transform="translate(1.333 1.333)"/>
        <path fill="#BDBDBD" fill-rule="nonzero" d="M5.667 11.333C2.533 11.333 0 8.8 0 5.667 0 2.533 2.533 0 5.667 0c3.133 0 5.666 2.533 5.666 5.667 0 3.133-2.533 5.666-5.666 5.666zm0-9.933C3.333 1.4 1.4 3.333 1.4 5.667 1.4 8 3.333 9.933 5.667 9.933 8 9.933 9.933 8 9.933 5.667 9.933 3.333 8 1.4 5.667 1.4z" transform="translate(1.333 1.333)"/>
    </g>
</svg>
